<svg width="451" height="97" viewBox="0 0 451 97" fill="none" xmlns="http://www.w3.org/2000/svg">
<path d="M181.26 95.92H185.45V87.86H194.95V83.88H185.45V79.08H194.95V75.1H181.26V95.92Z" fill="#47B5FF"/>
<path d="M200.23 95.92H204.26V80.52L200.23 81.85V95.92Z" fill="#47B5FF"/>
<path d="M219.29 84.79V81.05H215.05V76.27L211.05 77.6V87.96C211.05 89.08 211.26 90.15 211.69 91.16C212.09 92.15 212.7 93.03 213.45 93.78C214.2 94.55 215.08 95.14 216.06 95.57C217.07 96 218.17 96.21 219.29 96.21V92.21C216.94 92.21 215.05 90.31 215.05 87.97V84.79H219.29Z" fill="#47B5FF"/>
<path d="M243.2 95.92H246.59L251.71 81.05H247.5L244.94 88.79L242.51 81.05H239.28L236.9 88.79L234.32 81.05H230.1L235.25 95.92H238.56L240.88 88.55L243.2 95.92Z" fill="#47B5FF"/>
<path d="M256.51 95.92H260.54V80.52L256.51 81.85V95.92Z" fill="#47B5FF"/>
<path d="M275.58 84.79V81.05H271.34V76.27L267.34 77.6V87.96C267.34 89.08 267.55 90.15 267.98 91.16C268.38 92.15 268.99 93.03 269.74 93.78C270.49 94.55 271.37 95.14 272.35 95.57C273.36 96 274.46 96.21 275.58 96.21V92.21C273.23 92.21 271.34 90.31 271.34 87.97V84.79H275.58Z" fill="#47B5FF"/>
<path d="M292.38 83.14C291.1 81.86 289.42 81.16 287.6 81.16C286.64 81.16 285.71 81.35 284.85 81.75V74.41L280.85 75.74V87.33C280.82 87.54 280.82 87.73 280.82 87.94H280.85V95.92H284.85V87.54C285.04 86.21 286.18 85.16 287.6 85.16C289.12 85.16 290.37 86.39 290.37 87.94V95.92H294.37V87.94C294.37 86.12 293.65 84.42 292.37 83.14H292.38Z" fill="#47B5FF"/>
<path d="M308.06 95.92H312.25V87.86H321.75V83.88H312.25V79.08H321.75V75.1H308.06V95.92Z" fill="#47B5FF"/>
<path d="M334.94 91.62C334.41 91.94 333.77 92.13 333.13 92.13C331.16 92.13 329.53 90.5 329.53 88.53C329.53 86.56 331.16 84.93 333.13 84.93C333.82 84.93 334.52 85.12 335.08 85.52C335.67 85.87 336.12 86.4 336.39 87.01C336.63 87.49 336.74 88 336.74 88.53C336.74 89.17 336.58 89.78 336.26 90.35C335.94 90.88 335.51 91.34 334.95 91.63L334.94 91.62ZM336.54 80.89L336.57 81.74C335.5 81.21 334.33 80.91 333.13 80.91C332.12 80.91 331.1 81.1 330.17 81.5C329.26 81.9 328.46 82.43 327.74 83.13C327.05 83.82 326.51 84.65 326.11 85.56C325.74 86.49 325.52 87.51 325.52 88.52C325.52 89.53 325.73 90.55 326.11 91.48C326.51 92.39 327.04 93.19 327.74 93.91C328.46 94.6 329.26 95.14 330.17 95.54C331.1 95.91 332.12 96.13 333.13 96.13C334.33 96.13 335.5 95.84 336.57 95.3L336.54 95.91H340.54V80.88H336.54V80.89Z" fill="#47B5FF"/>
<path d="M352.22 96.08C354.91 96.08 357.1 93.89 357.1 91.19C357.1 88.49 354.91 86.3 352.22 86.3H351.1C350.7 86.3 350.41 85.98 350.41 85.61C350.41 85.21 350.7 84.89 351.1 84.89H356.68V80.7H351.1C348.41 80.7 346.22 82.92 346.22 85.61C346.22 88.3 348.41 90.5 351.1 90.5H352.22C352.59 90.5 352.91 90.82 352.91 91.19C352.91 91.59 352.59 91.88 352.22 91.88H345.98V96.07H352.22V96.08Z" fill="#47B5FF"/>
<path d="M374.04 83.14C372.76 81.86 371.08 81.16 369.26 81.16C368.3 81.16 367.37 81.35 366.51 81.75V74.41L362.51 75.74V87.33C362.48 87.54 362.48 87.73 362.48 87.94H362.51V95.92H366.51V87.54C366.7 86.21 367.84 85.16 369.26 85.16C370.78 85.16 372.04 86.39 372.04 87.94V95.92H376.04V87.94C376.04 86.12 375.32 84.42 374.04 83.14Z" fill="#47B5FF"/>
<path d="M382.32 95.92H386.35V80.52L382.32 81.85V95.92Z" fill="#47B5FF"/>
<path d="M399.65 84.9C401.62 84.9 403.25 86.53 403.25 88.5C403.25 90.47 401.62 92.1 399.65 92.1C397.68 92.1 396.05 90.47 396.05 88.5C396.05 86.53 397.68 84.9 399.65 84.9ZM399.65 96.11C400.66 96.11 401.68 95.9 402.61 95.52C403.52 95.12 404.34 94.59 405.04 93.89C405.73 93.17 406.27 92.37 406.67 91.46C407.07 90.53 407.26 89.51 407.26 88.5C407.26 87.49 407.07 86.47 406.67 85.54C406.27 84.63 405.74 83.8 405.04 83.11C404.32 82.42 403.52 81.88 402.61 81.48C401.68 81.08 400.66 80.89 399.65 80.89C398.64 80.89 397.62 81.08 396.69 81.48C395.78 81.88 394.98 82.41 394.26 83.11C393.57 83.83 393.03 84.63 392.63 85.54C392.26 86.47 392.04 87.46 392.04 88.5C392.04 89.54 392.25 90.53 392.63 91.46C393.03 92.37 393.56 93.17 394.26 93.89C394.98 94.58 395.78 95.12 396.69 95.52C397.62 95.89 398.64 96.11 399.65 96.11Z" fill="#47B5FF"/>
<path d="M424.33 83.27C423.05 82.02 421.37 81.32 419.58 81.32C418.62 81.32 417.71 81.51 416.88 81.88V80.89H412.88V87.43C412.85 87.64 412.85 87.83 412.85 88.04H412.88V95.91H416.88V87.63C417.07 86.32 418.19 85.31 419.58 85.31C421.07 85.31 422.3 86.54 422.3 88.03V95.9H426.3V88.03C426.3 86.21 425.58 84.53 424.33 83.25V83.27Z" fill="#47B5FF"/>
<path d="M156.7 58.37H160.95V32.6H194.04V28.76H156.7V58.36V58.37ZM156.7 0V3.84H194.04V0H156.7Z" fill="#47B5FF"/>
<path d="M213.54 0H209.29V58.37H213.54V0Z" fill="#1363DF"/>
<path d="M245.04 3.84V58.37H249.29V3.84H270.29V0H224.03V3.84H245.04Z" fill="#1363DF"/>
<path d="M292.74 3.84V58.37H296.99V3.84H317.99V0H271.73V3.84H292.74Z" fill="#1363DF"/>
<path d="M332.7 0H328.45V58.37H332.7V0Z" fill="#47B5FF"/>
<path d="M383.79 37.94C388.12 36.69 391.54 34.52 393.88 31.35C396.21 28.18 397.46 24.35 397.46 19.68C397.46 13.59 395.38 8.76 391.21 5.25C387.04 1.75 381.29 0 373.96 0H353.04V3.84H373.96C380.13 3.84 384.88 5.26 388.21 8.01C391.46 10.76 393.13 14.68 393.13 19.68C393.13 24.68 391.46 28.69 388.21 31.44C384.88 34.19 380.12 35.53 373.96 35.53H353.04V58.38H357.29V39.28H373.96C375.63 39.28 377.54 39.2 379.63 38.86L393.55 58.37H398.38L383.79 37.94Z" fill="#47B5FF"/>
<path d="M413.11 54.53V58.37H450.87V54.53H413.11ZM450.87 0H413.11V3.84H450.87V0ZM450.87 26.85H413.11V30.6H450.87V26.85Z" fill="#1363DF"/>
<path d="M92.38 93.8H22.86V30.23C16.86 34.21 11.42 37.82 5.47003 41.76C3.57003 36.08 1.71003 30.7 0.0300252 25.26C-0.149975 24.67 0.590025 23.58 1.17003 22.99C7.92003 16.16 14.71 9.35002 21.54 2.60002C22.22 1.93002 23.28 1.29002 24.18 1.27002C29.37 1.14002 34.56 1.21002 39.69 1.21002C42.97 13.87 48.39 18.84 58.34 18.53C67.44 18.25 72.89 12.76 75.29 1.21002C80.52 1.21002 85.83 1.12002 91.13 1.29002C92.1 1.32002 93.18 2.23002 93.95 2.99002C100.54 9.49002 107.05 16.08 113.65 22.57C114.95 23.85 115.41 24.93 114.71 26.79C112.91 31.63 111.38 36.57 109.64 41.77C103.79 37.88 98.34 34.26 92.38 30.29V93.79V93.8Z" fill="#47B5FF"/>
</svg>
