<?xml version="1.0" encoding="UTF-8"?>
<svg id="Layer_2" data-name="Layer 2" xmlns="http://www.w3.org/2000/svg" viewBox="0 0 1108.61 121.13">
  <defs>
    <style>
      .cls-1 {
        fill: #0d2436;
      }
    </style>
  </defs>
  <g id="Layer_1-2" data-name="Layer 1">
    <g>
      <polygon class="cls-1" points="93.49 51.57 66.33 98.37 51.14 98.37 24.14 51.83 24.14 120.22 0 120.22 0 1.07 21.9 1.07 58.81 65.99 95.72 1.07 117.47 1.07 117.47 120.22 93.49 120.22 93.49 51.57"/>
      <path class="cls-1" d="m203.48,117.35c-5.61-2.37-10.65-5.78-14.97-10.1-4.32-4.32-7.71-9.36-10.1-14.97-2.46-5.82-3.71-11.99-3.71-18.35V1.07h23.98v72.86c0,12.76,10.39,23.14,23.14,23.14s23.14-10.39,23.14-23.14V1.07h23.98v72.86c0,6.35-1.25,12.53-3.71,18.35-2.37,5.61-5.77,10.65-10.1,14.97-4.32,4.32-9.36,7.71-14.97,10.1-5.82,2.46-11.99,3.71-18.34,3.71s-12.53-1.25-18.35-3.71Z"/>
      <path class="cls-1" d="m320.57,102.64l-3.22-3.45,15.78-18.88,4.08,5.12c3.19,4,7.36,7.29,12.04,9.49,4.4,2.08,9.15,3.16,13.73,3.16,5.41,0,10.02-1.19,12.99-3.34,2.67-1.94,3.97-4.54,3.97-7.96,0-3.73-1.15-6.03-4.06-8.22-3.36-2.51-8.8-4.55-15.11-6.93-.53-.2-1.08-.41-1.65-.63-8.66-3.22-16.99-6.54-23.66-11.85-3.88-3.09-6.75-6.49-8.78-10.4-2.26-4.34-3.41-9.27-3.41-14.66,0-9.39,4.06-18.09,11.43-24.47,7.15-6.19,16.76-9.59,27.07-9.59,13.32,0,26.32,4.8,37.58,13.85l4.06,3.28-14.65,19.06-4.28-3.51c-7.53-6.22-15.81-9.78-22.71-9.78-6.42,0-13.93,2.78-14.05,10.62-.05,3.5,1.63,5.41,4.18,7.2,3.65,2.57,9.46,4.78,15.6,7.13l.06.02c.96.38,1.92.76,2.89,1.13,8.69,3.41,16.91,6.61,23.14,11.75,7.36,6.08,10.95,14.08,10.95,24.49,0,5.64-1.21,10.88-3.59,15.58-2.25,4.4-5.45,8.24-9.58,11.4-7.51,5.74-17.64,8.92-28.53,8.92-16.1,0-31.1-6.57-42.25-18.5Z"/>
      <path class="cls-1" d="m457.23,1.07v22.76h77.14V1.07h-77.14Zm0,71.18h77.14v-22.76h-77.14v22.76Zm0,47.97h77.14v-22.3h-77.14v22.3Z"/>
      <polygon class="cls-1" points="683.84 51.57 656.68 98.37 641.49 98.37 614.49 51.83 614.49 120.22 590.35 120.22 590.35 1.07 612.26 1.07 649.16 65.99 686.07 1.07 707.82 1.07 707.82 120.22 683.84 120.22 683.84 51.57"/>
      <polygon class="cls-1" points="820.17 1.07 799.5 1.07 754.36 120.22 779.75 120.22 809.8 37.62 840.1 120.22 865.49 120.22 820.17 1.07"/>
      <polygon class="cls-1" points="810.01 120.22 791.04 90.86 828.81 90.86 810.01 120.22"/>
      <polygon class="cls-1" points="925.16 23.83 892.78 23.83 892.78 1.07 981.99 1.07 981.99 23.83 949.14 23.83 949.14 120.22 925.16 120.22 925.16 23.83"/>
      <path class="cls-1" d="m1031.47,1.07v22.76h77.14V1.07h-77.14Zm0,71.18h77.14v-22.76h-77.14v22.76Zm0,47.97h77.14v-22.3h-77.14v22.3Z"/>
    </g>
  </g>
</svg>