<?xml version="1.0" encoding="UTF-8"?>
<svg id="Layer_2" data-name="Layer 2" xmlns="http://www.w3.org/2000/svg" viewBox="0 0 294.16 58.37">
  <defs>
    <style>
      .cls-1 {
        fill: #222026;
      }

      .cls-2 {
        fill: #a9a1c0;
      }

      .cls-3 {
        fill: #44404d;
      }

      .cls-4 {
        fill: #878199;
      }

      .cls-5 {
        fill: #cbc1e6;
      }

      .cls-6 {
        fill: #666173;
      }
    </style>
  </defs>
  <g id="Layer_1-2" data-name="Layer 1">
    <g>
      <path d="M0,58.37H4.25v-25.77H37.34v-3.84H0v29.6ZM0,0V3.84H37.34V0H0Z"/>
      <rect class="cls-1" x="52.58" width="4.25" height="58.37"/>
      <polygon class="cls-3" points="88.34 3.84 88.34 58.37 92.59 58.37 92.59 3.84 113.59 3.84 113.59 0 67.33 0 67.33 3.84 88.34 3.84"/>
      <polygon class="cls-6" points="136.03 3.84 136.03 58.37 140.29 58.37 140.29 3.84 161.29 3.84 161.29 0 115.03 0 115.03 3.84 136.03 3.84"/>
      <rect class="cls-4" x="171.75" width="4.25" height="58.37"/>
      <path class="cls-2" d="M227.09,37.94c4.33-1.25,7.75-3.42,10.09-6.59,2.33-3.17,3.58-7,3.58-11.67,0-6.09-2.08-10.92-6.25-14.43-4.17-3.5-9.92-5.25-17.25-5.25h-20.92V3.84h20.92c6.17,0,10.92,1.42,14.25,4.17,3.25,2.75,4.92,6.67,4.92,11.67s-1.67,9.01-4.92,11.76c-3.33,2.75-8.09,4.09-14.25,4.09h-20.92v22.85h4.25v-19.1h16.67c1.67,0,3.58-.08,5.67-.42l13.92,19.51h4.83l-14.59-20.43Z"/>
      <path class="cls-5" d="M256.41,54.53v3.84h37.76v-3.84h-37.76ZM294.16,0h-37.76V3.84h37.76V0Zm0,26.85h-37.76v3.75h37.76v-3.75Z"/>
    </g>
  </g>
</svg>